PathFileType	4	(X/Y/Z)	Patient4_TMGait_0pt3_03_right_13.trc.trc
DataRate	CameraRate	NumFrames	NumMarkers	Units	OrigDataRate	OrigDataStartFrame	OrigNumFrames
54.474708171206	54.474708171206	5	33	mm	54.474708171206	89	       141
Frame#	Time	Sacral			L.Shoulder			Chest			R.Shoulder			Neck			R.ASIS			L.ASIS			R.Thigh.Superior			R.Thigh.Lateral			R.Thigh.Inferior			R.Patella			L.Thigh.Superior			L.Thigh.Lateral			L.Thigh.Inferior			L.Patella			L.Shank.Superior			L.Shank.Lateral			L.Shank.Inferior			R.Shank.Superior			R.Shank.Lateral			R.Shank.Inferior			R.Heel			R.Midfoot.Superior			R.Midfoot.Lateral			R.Toe			L.Heel			L.Midfoot.Lateral			L.Midfoot.Superior			L.Toe			L.Elbow			L.Wrist			R.Elbow			R.Wrist			
		X1	Y1	Z1	X2	Y2	Z2	X3	Y3	Z3	X4	Y4	Z4	X5	Y5	Z5	X6	Y6	Z6	X7	Y7	Z7	X8	Y8	Z8	X9	Y9	Z9	X10	Y10	Z10	X11	Y11	Z11	X12	Y12	Z12	X13	Y13	Z13	X14	Y14	Z14	X15	Y15	Z15	X16	Y16	Z16	X17	Y17	Z17	X18	Y18	Z18	X19	Y19	Z19	X20	Y20	Z20	X21	Y21	Z21	X22	Y22	Z22	X23	Y23	Z23	X24	Y24	Z24	X25	Y25	Z25	X26	Y26	Z26	X27	Y27	Z27	X28	Y28	Z28	X29	Y29	Z29	X30	Y30	Z30	X31	Y31	Z31	X32	Y32	Z32	X33	Y33	Z33	

89	26.255428571429	762.912099478639	1011.879927105065	468.338652854458	937.141874309608	1423.837336584033	255.935761304950	1061.000952484596	1349.746941700523	398.911057122424	1014.066261291715	1432.206560448647	582.104554567189	946.534978661889	1486.918941188716	415.334156531351	998.347603915555	927.957027552055	558.052909353264	955.239016882493	951.739389234036	288.927765722413	982.173480733625	716.299770641770	543.843363296356	878.137637739345	630.836011788976	617.910429402635	932.889110659145	557.046543217256	540.412388933182	906.575790139423	466.178779110832	555.586934884614	1025.861768144678	761.549230018620	333.541944746064	961.961653298085	629.744558334362	271.600960389595	1059.738870333304	567.479337089457	335.578012909500	1072.171755411166	491.962589208387	340.805736332046	1038.358165977594	417.381799958475	334.855155710328	942.680043256210	307.976523414291	285.814140012686	987.254301908570	193.864584079758	352.927553144835	845.799462491831	393.750849335120	570.247391526912	744.023137617652	327.883299344609	642.566606412381	747.759578840415	219.170362686306	588.080942093649	562.331572214456	98.193746363467	575.505222879823	742.458471579277	102.966509836234	598.466455053565	644.754621981986	63.124776400527	641.854690325479	845.285772365720	36.291746060990	616.902021372732	849.104096762160	43.751991563300	392.855882735959	922.501535815425	39.717715390614	312.493252516224	1008.511582090505	97.531923833001	338.914142832318	1133.909880034636	39.422138458825	307.164925581828	840.946026989930	1081.905753084986	150.088983614886	976.052320154501	857.669413237128	131.476386864190	1083.200156219932	1092.507276854469	703.919876094682	1316.458784812774	986.088025096008	698.529336936404	
90	26.273785714286	763.238473412406	1011.989892972573	462.824427797782	939.392436367611	1424.134114362114	251.850292374111	1061.971886474956	1349.897476772643	395.791172425675	1013.528141274626	1432.154528967846	578.677095910996	947.402304114299	1487.042225537712	411.444036058366	997.924237330303	928.259132623380	554.237964014116	956.795678577622	951.475731831826	284.829999186053	982.487974229598	716.619418721362	541.253938841440	878.290798823238	631.254693342329	615.148335186158	934.052020501885	556.986217836165	538.526796585539	908.003918259762	465.410259451134	554.716585593526	1026.266578430245	760.569971327103	329.817980134810	961.525243410910	628.893531068413	268.546664401607	1058.817381385284	566.275541616623	332.906900093497	1070.674929920666	490.671661046533	338.642671614711	1036.175374785101	416.139348031329	333.099844396316	939.593666911700	307.349399205703	284.370890970792	982.801329144756	193.265626273557	352.301985751288	845.950789457514	393.944338335792	569.360854724880	742.790423738804	330.106497413124	641.480997577775	745.748119591141	220.673506197219	588.024566512796	558.668229479825	102.366349583583	575.677596109242	738.962622441859	103.505206932630	598.774059127746	640.310571203787	65.450151370549	641.889165797687	839.950190161138	36.133019463674	616.847106924172	843.513997544166	43.731060357331	392.730947257628	916.931913965763	39.589268235286	312.397280062642	1002.943734375561	97.426023800489	338.796710800961	1128.366253221927	39.319274739132	307.113097843823	849.044763174156	1081.743143043674	141.671304709848	990.938903998632	861.970168215905	122.667919151133	1077.992895268829	1091.352737816777	701.336130833600	1302.939958376864	966.702716520039	702.746523435474	
91	26.292142857143	763.337520721051	1012.161098730862	457.397102366523	941.719883726972	1424.376164335083	247.811920947558	1062.901197766263	1350.004733830960	392.800504120992	1012.893842349602	1432.170177406613	575.298324352329	948.277685288840	1487.180746834208	407.558798011967	997.256733703645	928.574242781750	550.554179309141	958.151126238988	951.271387001072	280.891247009053	983.216238541550	717.031397978897	538.638404963180	879.223335706246	631.438886736218	612.353300258575	936.199642425660	556.862597389133	536.509652085183	910.610280338769	464.367690624679	553.799031547326	1026.357912390883	759.510760471146	325.986346640215	960.564751827711	628.103016956027	265.435605758802	1057.338554972358	565.044514222866	330.124722343528	1068.561091087594	489.434615108059	336.387192195054	1033.501102538771	414.982355831252	331.251757266554	936.169441238079	306.694139992906	282.814792915232	978.139924060038	192.695349568071	351.611978954930	847.109465626372	393.992023797821	568.369369338267	742.478785977573	332.473986012014	640.292836626384	744.336322898251	222.351900760400	587.854018895767	555.443445211110	107.345662117780	575.710500691688	735.727582178248	104.248365770198	598.997335348638	636.082016982262	68.386722048795	641.832648688811	834.594522730727	35.857957197247	616.807883689411	837.899022409106	43.650447524716	392.557516743256	911.349608609055	39.402437807045	312.265808195203	997.339580795803	97.309594624169	338.639380643105	1122.817706952887	39.240915683015	307.068834916715	857.434285108138	1081.585817936754	133.489898515726	1005.680132509797	866.283942286550	114.113834841010	1071.760935003664	1090.311008210237	699.032043495585	1286.750211413336	948.086574985122	706.834991627038	
92	26.310500000000	763.178813460305	1012.375045292286	452.087010382013	944.103707761897	1424.548863829767	243.846537298473	1063.764771915498	1350.054130464205	389.965316074881	1012.139685267553	1432.239767369024	571.990619061726	949.138378161948	1487.323477803500	403.704837963361	996.346453067519	928.897575693641	547.020428837707	959.271487207415	951.125704674197	277.133250909002	984.463353513520	717.566812724658	535.974215672358	881.122632777648	631.379164450007	609.535714741749	939.528675209439	556.702531603828	534.348632220653	914.585897371755	463.073544477369	552.807123038504	1026.136662020879	758.384507919134	322.074413391185	959.112683241800	627.371506074029	262.312140065814	1055.347608485764	563.805164493677	327.280157518814	1065.900280282479	488.260651654643	334.076156426668	1030.386958601454	413.916018202331	329.346534319798	932.439143669682	306.026954984062	281.190227589145	973.300774986379	192.159944095805	350.877718219740	849.455867853623	393.904316182862	567.250651533863	743.269428787505	335.039179742156	638.979229876105	743.647157120217	224.292295981207	587.548522215865	552.789880482189	113.370352105038	575.567800846675	732.824437166349	105.328114788442	599.144300865750	632.143014788849	72.127961486336	641.663380420432	829.218177038142	35.439141448219	616.792847742573	832.269667038075	43.525394277548	392.349702885270	905.760812740331	39.175761192566	312.109131401390	991.711277906540	97.189193539719	338.452777775588	1117.267205540762	39.184288686066	307.030222304061	866.067691518650	1081.434202203057	125.601846371361	1020.324028490776	870.628157924604	105.860978617127	1064.407412571544	1089.401388470655	696.992782592931	1267.989038737877	930.538658012854	710.626611120303	
93	26.328857142857	762.741868234932	1012.594180769637	446.927585236486	946.505815580256	1424.633253255778	239.988457462336	1064.527500814052	1350.028106409367	387.314761752204	1011.229899608573	1432.332023138728	568.786545547367	949.948797408837	1487.448900689203	399.918343131463	995.208676116794	929.219101672113	543.654246114391	960.131933036874	951.024255320037	273.569289212661	986.305642703691	718.253480026928	533.233398164562	884.132140457419	631.083312327440	606.700674474540	944.170191063632	556.543996357163	532.025671583849	920.054479114869	461.578859974410	551.701163047840	1025.623113611671	757.203940820451	318.129744349347	957.243571271596	626.685410087651	259.231115081156	1052.930965832054	562.572963387533	324.440512431046	1062.804324277749	487.147225529422	331.764929605846	1026.919374411624	412.931772810400	327.433691075437	928.459887208334	305.361199666582	279.550337454074	968.326412895741	191.658906460010	350.125827245716	853.117641047867	393.705997244561	565.979139737781	745.301422887535	337.852100194690	637.511773448687	743.782704814696	226.580076998506	587.084607227915	550.840232178858	120.636287564902	575.209928983610	730.326143702525	106.885886437433	599.223640626241	628.577649314773	76.849718686577	641.357623113822	823.833676555661	34.864945701073	616.809064507816	826.635510707033	43.373584492457	392.123338476980	900.170489158159	38.929147447996	311.938472317875	986.070881869436	97.070173679215	338.249933667718	1111.716554439523	39.145236020622	306.994945751235	874.899346101935	1081.283217379213	118.050712198516	1034.917666078042	875.032236247977	97.958625843859	1055.849520152079	1088.631475966988	695.193269354269	1246.835359626260	914.310956802310	713.968848296610	
